<svg width="34" height="35" viewBox="0 0 34 35" fill="none" xmlns="http://www.w3.org/2000/svg">
<g clip-path="url(#clip0_6_7)">
<path d="M2.81838 27.0901C1.78918 29.5887 0.398218 31.9612 0 34.4599L1.43863 34.3365C3.71016 27.7295 5.75734 23.2874 10.1966 17.7319C13.5282 13.5703 17.143 10.2583 21.7786 7.62785C24.2465 6.22567 27.407 4.69169 30.2506 4.30469C31.0274 4.19812 31.8154 4.16727 32.6231 4.23738C23.8174 6.25371 16.8458 10.923 11.2763 17.9226C9.00198 20.7775 7.02491 23.9492 5.20769 27.292L8.55609 27.9033L7.16232 27.2107L12.1485 26.417C10.2976 25.7636 8.46915 25.9823 7.88304 25.2785C13.015 25.0457 17.2328 23.938 20.1942 21.787C19.0921 21.6328 17.8217 21.4954 17.1598 21.1785C22.1208 19.5015 24.9896 16.4868 28.6297 13.8114C23.8987 14.8042 19.5211 14.6415 18.2535 13.7413C26.6021 14.3611 31.9949 12.0531 33.843 6.23408C34.0028 5.60591 34.0477 4.97212 33.9467 4.33273C33.2989 0.17387 25.9375 -1.23111 23.5426 2.17898C23.063 2.86044 22.3872 3.48581 21.8291 4.27664L24.109 0C17.9731 2.07242 17.4683 4.35797 14.2938 11.2427C14.5462 9.14781 15.1267 7.24926 15.8811 5.45727C8.21396 8.41587 5.65919 15.8642 5.24975 22.1993C5.02821 19.9894 5.43764 17.2131 6.22847 14.0947C3.9906 16.3382 2.46783 18.9715 3.01188 22.7293L1.98829 22.2722L2.52672 24.2885L0.995546 23.5622L2.81838 27.0901Z" fill="#A75BFF"/>
</g>
<defs>
<clipPath id="clip0_6_7">
<rect width="34" height="34.4599" fill="white"/>
</clipPath>
</defs>
</svg>
