<svg width="30" height="30" viewBox="0 0 30 30" fill="none" xmlns="http://www.w3.org/2000/svg">
<g clip-path="url(#clip0_44_51)">
<path fill-rule="evenodd" clip-rule="evenodd" d="M6.77588 0H23.2261C25.0213 0.0051772 26.7415 0.723949 28.011 1.99929C29.2804 3.27463 29.9958 5.00288 30.001 6.80648V23.196C29.9952 24.9992 29.2795 26.7268 28.0101 28.0016C26.7407 29.2764 25.0209 29.9948 23.2261 30H6.77588C4.98107 29.9948 3.26121 29.2764 1.99185 28.0016C0.722495 26.7268 0.00677347 24.9992 0.000976562 23.196V6.80648C0.00612975 5.00288 0.721567 3.27463 1.99099 1.99929C3.26042 0.723949 4.98065 0.0051772 6.77588 0Z" fill="#0A66C2"/>
<path fill-rule="evenodd" clip-rule="evenodd" d="M12.0103 11.6286H15.8018V13.5909H15.8555C16.3852 12.6392 17.6743 11.6286 19.6006 11.6286C23.602 11.6286 24.3418 14.1305 24.3418 17.3853V24.2678H20.3892V18.1506C20.3892 16.7501 20.3599 14.9473 18.3335 14.9473C16.3071 14.9473 15.9604 16.4704 15.9604 18.05V24.2801H12.0103V11.6286ZM9.7666 7.79739C9.7666 8.20586 9.64604 8.60515 9.42016 8.94478C9.19428 9.28441 8.87323 9.54911 8.4976 9.70543C8.12198 9.86174 7.70866 9.90264 7.3099 9.82295C6.91114 9.74326 6.54485 9.54657 6.25736 9.25774C5.96987 8.96891 5.77409 8.60092 5.69477 8.2003C5.61546 7.79968 5.65616 7.38443 5.81175 7.00706C5.96734 6.62968 6.23082 6.30714 6.56887 6.0802C6.90692 5.85327 7.30437 5.73215 7.71094 5.73215C8.25593 5.7328 8.77842 5.95059 9.1638 6.33776C9.54917 6.72493 9.76595 7.24985 9.7666 7.79739ZM5.66016 11.6286H9.7666V24.2678H5.66016V11.6286Z" fill="white"/>
</g>
<defs>
<clipPath id="clip0_44_51">
<rect width="30" height="30" fill="white" transform="translate(0.000976562)"/>
</clipPath>
</defs>
</svg>
