<svg width="30" height="30" viewBox="0 0 30 30" fill="none" xmlns="http://www.w3.org/2000/svg">
<g clip-path="url(#clip0_44_50)">
<path fill-rule="evenodd" clip-rule="evenodd" d="M15.001 0C23.2853 0 30.001 6.71572 30.001 15C30.001 23.2843 23.2853 30 15.001 30C6.7167 30 0.000976562 23.2843 0.000976562 15C0.000976562 6.71572 6.7167 0 15.001 0Z" fill="black"/>
<path d="M16.1082 15C16.1082 17.7108 13.9255 19.9085 11.2331 19.9085C8.5406 19.9085 6.35815 17.7114 6.35815 15C6.35815 12.2884 8.54077 10.0916 11.2331 10.0916C13.9254 10.0916 16.1082 12.2891 16.1082 15ZM21.4562 15C21.4562 17.5519 20.3649 19.6205 19.0187 19.6205C17.6726 19.6205 16.5811 17.5512 16.5811 15C16.5811 12.4487 17.6726 10.3794 19.0187 10.3794C20.3649 10.3794 21.4562 12.4487 21.4562 15ZM23.6437 15C23.6437 17.2863 23.2598 19.1397 22.7864 19.1397C22.3129 19.1397 21.929 17.2857 21.929 15C21.929 12.7142 22.3129 10.8601 22.7865 10.8601C23.2601 10.8601 23.6437 12.7137 23.6437 15Z" fill="white"/>
</g>
<defs>
<clipPath id="clip0_44_50">
<rect width="30" height="30" fill="white" transform="translate(0.000976562)"/>
</clipPath>
</defs>
</svg>
