<svg width="30" height="30" viewBox="0 0 30 30" fill="none" xmlns="http://www.w3.org/2000/svg">
<g clip-path="url(#clip0_44_53)">
<path d="M30 15C30 6.71552 23.2845 0 15 0C6.71552 0 0 6.71552 0 15C0 22.035 4.84303 27.9371 11.3764 29.5586V19.5837H8.2833V15H11.3764V13.025C11.3764 7.91906 13.6868 5.55265 18.699 5.55265C19.6497 5.55265 21.2894 5.73949 21.9601 5.92574V10.0809C21.6059 10.0438 20.9912 10.025 20.2273 10.025C17.7678 10.025 16.8171 10.9568 16.8171 13.3792V15H21.7167L20.875 19.5837H16.8171V29.8904C24.2446 28.9933 30 22.6692 30 15Z" fill="#0866FF"/>
<path d="M20.8749 19.5837L21.7166 15H16.817V13.3792C16.817 10.9568 17.7677 10.0249 20.2272 10.0249C20.9911 10.0249 21.6058 10.0438 21.96 10.0809V5.92573C21.2893 5.73948 19.6496 5.55264 18.6989 5.55264C13.6867 5.55264 11.3763 7.91964 11.3763 13.0249V15H8.2832V19.5837H11.3763V29.5585C12.5368 29.8462 13.7504 30 14.9999 30C15.6152 30 16.2211 29.9623 16.817 29.8904V19.5837H20.8749Z" fill="white"/>
</g>
<defs>
<clipPath id="clip0_44_53">
<rect width="30" height="30" fill="white"/>
</clipPath>
</defs>
</svg>
