<svg width="30" height="30" viewBox="0 0 30 30" fill="none" xmlns="http://www.w3.org/2000/svg">
<path d="M15.0076 0.227264C8.83898 0.227264 7.03489 0.233628 6.68421 0.262719C5.4183 0.367946 4.63057 0.567265 3.77239 0.994538C3.11103 1.32295 2.58944 1.70363 2.07467 2.23727C1.13717 3.21045 0.568987 4.40772 0.363305 5.8309C0.263305 6.52181 0.234214 6.66272 0.228305 10.1918C0.226032 11.3682 0.228305 12.9164 0.228305 14.993C0.228305 21.1566 0.235123 22.9589 0.264669 23.3089C0.366941 24.5407 0.560123 25.3157 0.969214 26.1634C1.75103 27.7861 3.24421 29.0043 5.0033 29.4589C5.61239 29.6157 6.28512 29.7021 7.14876 29.743C7.51466 29.7589 11.2442 29.7702 14.976 29.7702C18.7078 29.7702 22.4397 29.7657 22.7965 29.7475C23.7965 29.7005 24.3772 29.6225 25.0192 29.4566C26.7896 28.9998 28.2556 27.7998 29.0533 26.1543C29.4544 25.3271 29.6578 24.5225 29.7499 23.355C29.7699 23.1005 29.7783 19.042 29.7783 14.9891C29.7783 10.9355 29.7692 6.88454 29.7492 6.63C29.656 5.44363 29.4526 4.6459 29.0385 3.80272C28.6987 3.11249 28.3215 2.59704 27.7737 2.06999C26.7962 1.13636 25.6008 0.568174 24.1762 0.362719C23.486 0.262946 23.3485 0.233401 19.8167 0.227264H15.0076Z" fill="url(#paint0_radial_44_52)"/>
<path d="M15.0076 0.227264C8.83898 0.227264 7.03489 0.233628 6.68421 0.262719C5.4183 0.367946 4.63057 0.567265 3.77239 0.994538C3.11103 1.32295 2.58944 1.70363 2.07467 2.23727C1.13717 3.21045 0.568987 4.40772 0.363305 5.8309C0.263305 6.52181 0.234214 6.66272 0.228305 10.1918C0.226032 11.3682 0.228305 12.9164 0.228305 14.993C0.228305 21.1566 0.235123 22.9589 0.264669 23.3089C0.366941 24.5407 0.560123 25.3157 0.969214 26.1634C1.75103 27.7861 3.24421 29.0043 5.0033 29.4589C5.61239 29.6157 6.28512 29.7021 7.14876 29.743C7.51466 29.7589 11.2442 29.7702 14.976 29.7702C18.7078 29.7702 22.4397 29.7657 22.7965 29.7475C23.7965 29.7005 24.3772 29.6225 25.0192 29.4566C26.7896 28.9998 28.2556 27.7998 29.0533 26.1543C29.4544 25.3271 29.6578 24.5225 29.7499 23.355C29.7699 23.1005 29.7783 19.042 29.7783 14.9891C29.7783 10.9355 29.7692 6.88454 29.7492 6.63C29.656 5.44363 29.4526 4.6459 29.0385 3.80272C28.6987 3.11249 28.3215 2.59704 27.7737 2.06999C26.7962 1.13636 25.6008 0.568174 24.1762 0.362719C23.486 0.262946 23.3485 0.233401 19.8167 0.227264H15.0076Z" fill="url(#paint1_radial_44_52)"/>
<path d="M15.0008 4.09091C12.0381 4.09091 11.6663 4.10387 10.5026 4.15682C9.34127 4.21 8.54855 4.39387 7.85491 4.66364C7.13741 4.94228 6.52877 5.315 5.92241 5.92159C5.31559 6.52796 4.94287 7.13659 4.66332 7.85387C4.39287 8.54773 4.20877 9.34069 4.1565 10.5016C4.10446 11.6652 4.09082 12.0373 4.09082 15C4.09082 17.9627 4.104 18.3334 4.15673 19.4971C4.21014 20.6584 4.394 21.4511 4.66355 22.1448C4.94241 22.8623 5.31514 23.4709 5.92173 24.0773C6.52787 24.6841 7.1365 25.0577 7.85355 25.3364C8.54764 25.6061 9.34059 25.79 10.5017 25.8432C11.6654 25.8961 12.037 25.9091 14.9995 25.9091C17.9624 25.9091 18.3331 25.8961 19.4967 25.8432C20.6581 25.79 21.4517 25.6061 22.1458 25.3364C22.8631 25.0577 23.4708 24.6841 24.077 24.0773C24.6838 23.4709 25.0565 22.8623 25.336 22.145C25.6042 21.4511 25.7883 20.6582 25.8429 19.4973C25.8951 18.3336 25.9088 17.9627 25.9088 15C25.9088 12.0373 25.8951 11.6655 25.8429 10.5018C25.7883 9.34046 25.6042 8.54773 25.336 7.85409C25.0565 7.13659 24.6838 6.52796 24.077 5.92159C23.4701 5.31478 22.8633 4.94205 22.1451 4.66364C21.4497 4.39387 20.6565 4.21 19.4951 4.15682C18.3315 4.10387 17.961 4.09091 14.9974 4.09091H15.0008ZM14.0222 6.05682C14.3126 6.05637 14.6367 6.05682 15.0008 6.05682C17.9135 6.05682 18.2588 6.06728 19.409 6.11955C20.4726 6.16819 21.0499 6.34591 21.4345 6.49523C21.9435 6.69296 22.3065 6.92932 22.6881 7.31114C23.0699 7.69296 23.3063 8.05659 23.5045 8.56569C23.6538 8.94978 23.8317 9.52705 23.8801 10.5907C23.9324 11.7407 23.9438 12.0861 23.9438 14.9975C23.9438 17.9089 23.9324 18.2543 23.8801 19.4043C23.8315 20.468 23.6538 21.0452 23.5045 21.4293C23.3067 21.9384 23.0699 22.3009 22.6881 22.6825C22.3063 23.0643 21.9438 23.3007 21.4345 23.4984C21.0504 23.6484 20.4726 23.8257 19.409 23.8743C18.259 23.9266 17.9135 23.938 15.0008 23.938C12.0879 23.938 11.7426 23.9266 10.5926 23.8743C9.529 23.8252 8.95173 23.6475 8.56696 23.4982C8.05787 23.3005 7.69423 23.0641 7.31241 22.6823C6.93059 22.3005 6.69423 21.9377 6.49605 21.4284C6.34673 21.0443 6.16877 20.4671 6.12037 19.4034C6.06809 18.2534 6.05764 17.908 6.05764 14.9948C6.05764 12.0816 6.06809 11.738 6.12037 10.588C6.169 9.52432 6.34673 8.94705 6.49605 8.5625C6.69377 8.05341 6.93059 7.68978 7.31241 7.30796C7.69423 6.92614 8.05787 6.68978 8.56696 6.49159C8.9515 6.34159 9.529 6.16432 10.5926 6.11546C11.599 6.07 11.989 6.05637 14.0222 6.05409V6.05682ZM20.824 7.86819C20.1013 7.86819 19.5149 8.45387 19.5149 9.17682C19.5149 9.89955 20.1013 10.4859 20.824 10.4859C21.5467 10.4859 22.1331 9.89955 22.1331 9.17682C22.1331 8.45409 21.5467 7.86773 20.824 7.86773V7.86819ZM15.0008 9.39773C11.907 9.39773 9.39855 11.9061 9.39855 15C9.39855 18.0939 11.907 20.6011 15.0008 20.6011C18.0947 20.6011 20.6022 18.0939 20.6022 15C20.6022 11.9061 18.0947 9.39773 15.0008 9.39773ZM15.0008 11.3636C17.009 11.3636 18.6372 12.9916 18.6372 15C18.6372 17.0082 17.009 18.6364 15.0008 18.6364C12.9924 18.6364 11.3645 17.0082 11.3645 15C11.3645 12.9916 12.9924 11.3636 15.0008 11.3636Z" fill="white"/>
<defs>
<radialGradient id="paint0_radial_44_52" cx="0" cy="0" r="1" gradientUnits="userSpaceOnUse" gradientTransform="translate(8.07681 32.0457) rotate(-90) scale(29.2793 27.2394)">
<stop stop-color="#FFDD55"/>
<stop offset="0.1" stop-color="#FFDD55"/>
<stop offset="0.5" stop-color="#FF543E"/>
<stop offset="1" stop-color="#C837AB"/>
</radialGradient>
<radialGradient id="paint1_radial_44_52" cx="0" cy="0" r="1" gradientUnits="userSpaceOnUse" gradientTransform="translate(-4.72265 2.35549) rotate(78.6777) scale(13.0881 53.9632)">
<stop stop-color="#3771C8"/>
<stop offset="0.128" stop-color="#3771C8"/>
<stop offset="1" stop-color="#6600FF" stop-opacity="0"/>
</radialGradient>
</defs>
</svg>
